# xmcd CD database file generated by Grip 3.1.4
# 
# Track frame offsets:
#       150
#       19679
#       48025
#       95356
#       131200
#       140100
#       167396
#       174990
#       230344
#       283793
# 
# Disc length: 4292 seconds
# 
# Revision: 1
# Processed by: cddbd v1.5.1PL0 Copyright (c) Steve Scherf et al.
# Submitted via: Grip 3.1.4
# 
DISCID=8010c20a
DTITLE=Larry Garner - Embarrassment to the blues
DYEAR=2002
DGENRE=Blues
TTITLE0=Dreaming again
TTITLE1=Had to quit drinking
TTITLE2=Born to sang the blues
TTITLE3=Somebody
TTITLE4=Larryism 1/2
TTITLE5=Where the blues turn back
TTITLE6=Larryism 3/4
TTITLE7=Blues ain't nothing
TTITLE8=Keep on playing the blues
TTITLE9=The haves and the have nots
EXTD=
EXTT0=
EXTT1=
EXTT2=
EXTT3=
EXTT4=
EXTT5=
EXTT6=
EXTT7=
EXTT8=
EXTT9=
PLAYORDER=
